# xmcd CD database file
#
# Track frame offsets:
#	150
#	29406
#	46780
#	69268
#	92840
#	112308
#	133201
#	158579
#	181709
#	204171
#	227864
#	238506
#	252950
#	266188
#	278040
#	314045
#
# Disc length: 4593 seconds
#
# Revision: 2
# Processed by: cddbd v1.5.2PL0 Copyright (c) Steve Scherf et al.
# Submitted via: CDex 1.51
#
DISCID=e211ef10
DTITLE=Earl Hooker - The Bugs And A Roach - His First And Last Session
DYEAR=1989
DGENRE=Blues
TTITLE0=Anna Lee
TTITLE1=Off The Hook
TTITLE2=Love Ain't A Plaything
TTITLE3=You Don't Want Me
TTITLE4=Two Bugs And A Roach
TTITLE5=Wah Wah Blues
TTITLE6=You Don't Love Me
TTITLE7=Earl Hooker Blues
TTITLE8=The Hook
TTITLE9=New Sweet Black Angel
TTITLE10=Going On Down The Line
TTITLE11=Original Sweet Black Angel
TTITLE12=Guitar Rag
TTITLE13=Earl's Boogie Woogie
TTITLE14=Improvisations On Dust My Broom
TTITLE15=Improvisations On Frosty
EXTD=YEAR: 1989
EXTT0=
EXTT1=
EXTT2=
EXTT3=
EXTT4=
EXTT5=
EXTT6=
EXTT7=
EXTT8=
EXTT9=
EXTT10=
EXTT11=
EXTT12=
EXTT13=
EXTT14=
EXTT15=
PLAYORDER=
